<svg viewBox="0 0 800 800" xmlns="http://www.w3.org/2000/svg" fill="none" stroke="currentColor"><g stroke-width="0.7" opacity="0.5"><ellipse cx="400" cy="400" rx="330" ry="52" transform="rotate(0.0 400 400)"/><ellipse cx="400" cy="400" rx="330" ry="52" transform="rotate(7.5 400 400)"/><ellipse cx="400" cy="400" rx="330" ry="52" transform="rotate(15.0 400 400)"/><ellipse cx="400" cy="400" rx="330" ry="52" transform="rotate(22.5 400 400)"/><ellipse cx="400" cy="400" rx="330" ry="52" transform="rotate(30.0 400 400)"/><ellipse cx="400" cy="400" rx="330" ry="52" transform="rotate(37.5 400 400)"/><ellipse cx="400" cy="400" rx="330" ry="52" transform="rotate(45.0 400 400)"/><ellipse cx="400" cy="400" rx="330" ry="52" transform="rotate(52.5 400 400)"/><ellipse cx="400" cy="400" rx="330" ry="52" transform="rotate(60.0 400 400)"/><ellipse cx="400" cy="400" rx="330" ry="52" transform="rotate(67.5 400 400)"/><ellipse cx="400" cy="400" rx="330" ry="52" transform="rotate(75.0 400 400)"/><ellipse cx="400" cy="400" rx="330" ry="52" transform="rotate(82.5 400 400)"/><ellipse cx="400" cy="400" rx="330" ry="52" transform="rotate(90.0 400 400)"/><ellipse cx="400" cy="400" rx="330" ry="52" transform="rotate(97.5 400 400)"/><ellipse cx="400" cy="400" rx="330" ry="52" transform="rotate(105.0 400 400)"/><ellipse cx="400" cy="400" rx="330" ry="52" transform="rotate(112.5 400 400)"/><ellipse cx="400" cy="400" rx="330" ry="52" transform="rotate(120.0 400 400)"/><ellipse cx="400" cy="400" rx="330" ry="52" transform="rotate(127.5 400 400)"/><ellipse cx="400" cy="400" rx="330" ry="52" transform="rotate(135.0 400 400)"/><ellipse cx="400" cy="400" rx="330" ry="52" transform="rotate(142.5 400 400)"/><ellipse cx="400" cy="400" rx="330" ry="52" transform="rotate(150.0 400 400)"/><ellipse cx="400" cy="400" rx="330" ry="52" transform="rotate(157.5 400 400)"/><ellipse cx="400" cy="400" rx="330" ry="52" transform="rotate(165.0 400 400)"/><ellipse cx="400" cy="400" rx="330" ry="52" transform="rotate(172.5 400 400)"/><ellipse cx="400" cy="400" rx="330" ry="52" transform="rotate(180.0 400 400)"/><ellipse cx="400" cy="400" rx="330" ry="52" transform="rotate(187.5 400 400)"/><ellipse cx="400" cy="400" rx="330" ry="52" transform="rotate(195.0 400 400)"/><ellipse cx="400" cy="400" rx="330" ry="52" transform="rotate(202.5 400 400)"/><ellipse cx="400" cy="400" rx="330" ry="52" transform="rotate(210.0 400 400)"/><ellipse cx="400" cy="400" rx="330" ry="52" transform="rotate(217.5 400 400)"/><ellipse cx="400" cy="400" rx="330" ry="52" transform="rotate(225.0 400 400)"/><ellipse cx="400" cy="400" rx="330" ry="52" transform="rotate(232.5 400 400)"/><ellipse cx="400" cy="400" rx="330" ry="52" transform="rotate(240.0 400 400)"/><ellipse cx="400" cy="400" rx="330" ry="52" transform="rotate(247.5 400 400)"/><ellipse cx="400" cy="400" rx="330" ry="52" transform="rotate(255.0 400 400)"/><ellipse cx="400" cy="400" rx="330" ry="52" transform="rotate(262.5 400 400)"/><ellipse cx="400" cy="400" rx="330" ry="52" transform="rotate(270.0 400 400)"/><ellipse cx="400" cy="400" rx="330" ry="52" transform="rotate(277.5 400 400)"/><ellipse cx="400" cy="400" rx="330" ry="52" transform="rotate(285.0 400 400)"/><ellipse cx="400" cy="400" rx="330" ry="52" transform="rotate(292.5 400 400)"/><ellipse cx="400" cy="400" rx="330" ry="52" transform="rotate(300.0 400 400)"/><ellipse cx="400" cy="400" rx="330" ry="52" transform="rotate(307.5 400 400)"/><ellipse cx="400" cy="400" rx="330" ry="52" transform="rotate(315.0 400 400)"/><ellipse cx="400" cy="400" rx="330" ry="52" transform="rotate(322.5 400 400)"/><ellipse cx="400" cy="400" rx="330" ry="52" transform="rotate(330.0 400 400)"/><ellipse cx="400" cy="400" rx="330" ry="52" transform="rotate(337.5 400 400)"/><ellipse cx="400" cy="400" rx="330" ry="52" transform="rotate(345.0 400 400)"/><ellipse cx="400" cy="400" rx="330" ry="52" transform="rotate(352.5 400 400)"/></g><g stroke-width="0.9" opacity="0.7"><circle cx="400" cy="400" r="90"/><circle cx="400" cy="400" r="180"/><circle cx="400" cy="400" r="270"/><circle cx="400" cy="400" r="355"/></g><g stroke-width="1" opacity="0.8"><line x1="768.0" y1="400.0" x2="782.0" y2="400.0"/><line x1="766.6" y1="432.1" x2="780.5" y2="433.3"/><line x1="762.4" y1="463.9" x2="776.2" y2="466.3"/><line x1="755.5" y1="495.2" x2="769.0" y2="498.9"/><line x1="745.8" y1="525.9" x2="759.0" y2="530.7"/><line x1="733.5" y1="555.5" x2="746.2" y2="561.4"/><line x1="718.7" y1="584.0" x2="730.8" y2="591.0"/><line x1="701.4" y1="611.1" x2="712.9" y2="619.1"/><line x1="681.9" y1="636.5" x2="692.6" y2="645.5"/><line x1="660.2" y1="660.2" x2="670.1" y2="670.1"/><line x1="636.5" y1="681.9" x2="645.5" y2="692.6"/><line x1="611.1" y1="701.4" x2="619.1" y2="712.9"/><line x1="584.0" y1="718.7" x2="591.0" y2="730.8"/><line x1="555.5" y1="733.5" x2="561.4" y2="746.2"/><line x1="525.9" y1="745.8" x2="530.7" y2="759.0"/><line x1="495.2" y1="755.5" x2="498.9" y2="769.0"/><line x1="463.9" y1="762.4" x2="466.3" y2="776.2"/><line x1="432.1" y1="766.6" x2="433.3" y2="780.5"/><line x1="400.0" y1="768.0" x2="400.0" y2="782.0"/><line x1="367.9" y1="766.6" x2="366.7" y2="780.5"/><line x1="336.1" y1="762.4" x2="333.7" y2="776.2"/><line x1="304.8" y1="755.5" x2="301.1" y2="769.0"/><line x1="274.1" y1="745.8" x2="269.3" y2="759.0"/><line x1="244.5" y1="733.5" x2="238.6" y2="746.2"/><line x1="216.0" y1="718.7" x2="209.0" y2="730.8"/><line x1="188.9" y1="701.4" x2="180.9" y2="712.9"/><line x1="163.5" y1="681.9" x2="154.5" y2="692.6"/><line x1="139.8" y1="660.2" x2="129.9" y2="670.1"/><line x1="118.1" y1="636.5" x2="107.4" y2="645.5"/><line x1="98.6" y1="611.1" x2="87.1" y2="619.1"/><line x1="81.3" y1="584.0" x2="69.2" y2="591.0"/><line x1="66.5" y1="555.5" x2="53.8" y2="561.4"/><line x1="54.2" y1="525.9" x2="41.0" y2="530.7"/><line x1="44.5" y1="495.2" x2="31.0" y2="498.9"/><line x1="37.6" y1="463.9" x2="23.8" y2="466.3"/><line x1="33.4" y1="432.1" x2="19.5" y2="433.3"/><line x1="32.0" y1="400.0" x2="18.0" y2="400.0"/><line x1="33.4" y1="367.9" x2="19.5" y2="366.7"/><line x1="37.6" y1="336.1" x2="23.8" y2="333.7"/><line x1="44.5" y1="304.8" x2="31.0" y2="301.1"/><line x1="54.2" y1="274.1" x2="41.0" y2="269.3"/><line x1="66.5" y1="244.5" x2="53.8" y2="238.6"/><line x1="81.3" y1="216.0" x2="69.2" y2="209.0"/><line x1="98.6" y1="188.9" x2="87.1" y2="180.9"/><line x1="118.1" y1="163.5" x2="107.4" y2="154.5"/><line x1="139.8" y1="139.8" x2="129.9" y2="129.9"/><line x1="163.5" y1="118.1" x2="154.5" y2="107.4"/><line x1="188.9" y1="98.6" x2="180.9" y2="87.1"/><line x1="216.0" y1="81.3" x2="209.0" y2="69.2"/><line x1="244.5" y1="66.5" x2="238.6" y2="53.8"/><line x1="274.1" y1="54.2" x2="269.3" y2="41.0"/><line x1="304.8" y1="44.5" x2="301.1" y2="31.0"/><line x1="336.1" y1="37.6" x2="333.7" y2="23.8"/><line x1="367.9" y1="33.4" x2="366.7" y2="19.5"/><line x1="400.0" y1="32.0" x2="400.0" y2="18.0"/><line x1="432.1" y1="33.4" x2="433.3" y2="19.5"/><line x1="463.9" y1="37.6" x2="466.3" y2="23.8"/><line x1="495.2" y1="44.5" x2="498.9" y2="31.0"/><line x1="525.9" y1="54.2" x2="530.7" y2="41.0"/><line x1="555.5" y1="66.5" x2="561.4" y2="53.8"/><line x1="584.0" y1="81.3" x2="591.0" y2="69.2"/><line x1="611.1" y1="98.6" x2="619.1" y2="87.1"/><line x1="636.5" y1="118.1" x2="645.5" y2="107.4"/><line x1="660.2" y1="139.8" x2="670.1" y2="129.9"/><line x1="681.9" y1="163.5" x2="692.6" y2="154.5"/><line x1="701.4" y1="188.9" x2="712.9" y2="180.9"/><line x1="718.7" y1="216.0" x2="730.8" y2="209.0"/><line x1="733.5" y1="244.5" x2="746.2" y2="238.6"/><line x1="745.8" y1="274.1" x2="759.0" y2="269.3"/><line x1="755.5" y1="304.8" x2="769.0" y2="301.1"/><line x1="762.4" y1="336.1" x2="776.2" y2="333.7"/><line x1="766.6" y1="367.9" x2="780.5" y2="366.7"/></g><circle cx="400" cy="400" r="4" fill="currentColor" stroke="none"/></svg>